<mxfile host="app.diagrams.net" agent="Mozilla/5.0 (Windows NT 10.0; Win64; x64) AppleWebKit/537.36 (KHTML, like Gecko) Chrome/129.0.0.0 Safari/537.36" version="24.7.16">
  <diagram name="Page-1" id="jLqM2C0qClyr09_kPCbB">
    <mxGraphModel dx="1290" dy="530" grid="1" gridSize="10" guides="1" tooltips="1" connect="1" arrows="1" fold="1" page="1" pageScale="1" pageWidth="850" pageHeight="1100" math="0" shadow="0">
      <root>
        <mxCell id="0" />
        <mxCell id="1" parent="0" />
        <mxCell id="WTp4BMc5MlcErtzFq8DU-10" style="edgeStyle=orthogonalEdgeStyle;rounded=0;orthogonalLoop=1;jettySize=auto;html=1;entryX=1;entryY=0.5;entryDx=0;entryDy=0;" edge="1" parent="1" source="WTp4BMc5MlcErtzFq8DU-2" target="WTp4BMc5MlcErtzFq8DU-3">
          <mxGeometry relative="1" as="geometry" />
        </mxCell>
        <mxCell id="WTp4BMc5MlcErtzFq8DU-2" value="&lt;b&gt;Kubernetes Cluster&lt;/b&gt;" style="rounded=1;whiteSpace=wrap;html=1;" vertex="1" parent="1">
          <mxGeometry x="365" y="140" width="120" height="60" as="geometry" />
        </mxCell>
        <mxCell id="WTp4BMc5MlcErtzFq8DU-3" value="&lt;b&gt;Pods&lt;/b&gt;" style="rounded=1;whiteSpace=wrap;html=1;" vertex="1" parent="1">
          <mxGeometry x="80" y="140" width="120" height="60" as="geometry" />
        </mxCell>
        <mxCell id="WTp4BMc5MlcErtzFq8DU-12" style="edgeStyle=orthogonalEdgeStyle;rounded=0;orthogonalLoop=1;jettySize=auto;html=1;entryX=0.5;entryY=1;entryDx=0;entryDy=0;" edge="1" parent="1" source="WTp4BMc5MlcErtzFq8DU-4" target="WTp4BMc5MlcErtzFq8DU-3">
          <mxGeometry relative="1" as="geometry" />
        </mxCell>
        <mxCell id="WTp4BMc5MlcErtzFq8DU-14" style="edgeStyle=orthogonalEdgeStyle;rounded=0;orthogonalLoop=1;jettySize=auto;html=1;entryX=0;entryY=0.5;entryDx=0;entryDy=0;" edge="1" parent="1" source="WTp4BMc5MlcErtzFq8DU-4" target="WTp4BMc5MlcErtzFq8DU-5">
          <mxGeometry relative="1" as="geometry" />
        </mxCell>
        <mxCell id="WTp4BMc5MlcErtzFq8DU-4" value="&lt;b&gt;Deep Learning Model&lt;/b&gt;" style="rounded=1;whiteSpace=wrap;html=1;" vertex="1" parent="1">
          <mxGeometry x="80" y="340" width="120" height="60" as="geometry" />
        </mxCell>
        <mxCell id="WTp4BMc5MlcErtzFq8DU-5" value="&lt;b&gt;Alerting System&lt;/b&gt;" style="rounded=1;whiteSpace=wrap;html=1;" vertex="1" parent="1">
          <mxGeometry x="365" y="340" width="120" height="60" as="geometry" />
        </mxCell>
        <mxCell id="WTp4BMc5MlcErtzFq8DU-16" style="edgeStyle=orthogonalEdgeStyle;rounded=0;orthogonalLoop=1;jettySize=auto;html=1;entryX=0.5;entryY=1;entryDx=0;entryDy=0;" edge="1" parent="1" source="WTp4BMc5MlcErtzFq8DU-6" target="WTp4BMc5MlcErtzFq8DU-2">
          <mxGeometry relative="1" as="geometry" />
        </mxCell>
        <mxCell id="WTp4BMc5MlcErtzFq8DU-6" value="&lt;b&gt;YAML file checker&lt;/b&gt;" style="rounded=1;whiteSpace=wrap;html=1;" vertex="1" parent="1">
          <mxGeometry x="570" y="243" width="120" height="60" as="geometry" />
        </mxCell>
        <mxCell id="WTp4BMc5MlcErtzFq8DU-11" value="&lt;b&gt;&lt;font style=&quot;font-size: 14px;&quot;&gt;contains&amp;nbsp;&lt;/font&gt;&lt;/b&gt;" style="text;html=1;align=center;verticalAlign=middle;resizable=0;points=[];autosize=1;strokeColor=none;fillColor=none;" vertex="1" parent="1">
          <mxGeometry x="220" y="138" width="80" height="30" as="geometry" />
        </mxCell>
        <mxCell id="WTp4BMc5MlcErtzFq8DU-13" value="&lt;b&gt;&lt;font style=&quot;font-size: 14px;&quot;&gt;Analyzes Traffic&lt;/font&gt;&lt;/b&gt;" style="text;html=1;align=center;verticalAlign=middle;resizable=0;points=[];autosize=1;strokeColor=none;fillColor=none;" vertex="1" parent="1">
          <mxGeometry x="140" y="258" width="130" height="30" as="geometry" />
        </mxCell>
        <mxCell id="WTp4BMc5MlcErtzFq8DU-15" value="&lt;b&gt;&lt;font style=&quot;font-size: 14px;&quot;&gt;Sends alert metrics&lt;/font&gt;&lt;/b&gt;" style="text;html=1;align=center;verticalAlign=middle;resizable=0;points=[];autosize=1;strokeColor=none;fillColor=none;" vertex="1" parent="1">
          <mxGeometry x="200" y="378" width="150" height="30" as="geometry" />
        </mxCell>
        <mxCell id="WTp4BMc5MlcErtzFq8DU-17" value="&lt;b&gt;&lt;font style=&quot;font-size: 14px;&quot;&gt;Checks for issues&lt;/font&gt;&lt;/b&gt;" style="text;html=1;align=center;verticalAlign=middle;resizable=0;points=[];autosize=1;strokeColor=none;fillColor=none;" vertex="1" parent="1">
          <mxGeometry x="425" y="278" width="140" height="30" as="geometry" />
        </mxCell>
      </root>
    </mxGraphModel>
  </diagram>
</mxfile>
